# xmcd CD database file
#
# Track frame offsets:
#	150
#	16355
#	26318
#	39781
#	51943
#	71601
#	82096
#	93595
#	105667
#	119365
#	135441
#	148109
#	159657
#	173306
#	186657
#
# Disc length: 2667 seconds
#
# Revision: 0
# Processed by: cddbd v1.5.1PL2 Copyright (c) Steve Scherf et al.
# Submitted via: CDex 1.51
#
DISCID=c50a690f
DTITLE=Superstars of Country - Southern Nights [CDTwo)
DYEAR=1900
DGENRE=Country
TTITLE0=Dan Seals - Bop
TTITLE1=Merle Haggard and the Strangers - Mama Tried
TTITLE2=Glen Campbell - Southern Nights
TTITLE3=Tanya Tucker - Strong Enough to Bend
TTITLE4=Kenny Rogers - Coward of the County
TTITLE5=Sonny James - Empty Arms
TTITLE6=Wynn Stewart - It's Such a Pretty World Today
TTITLE7=Glen Campbell - Galveston
TTITLE8=Kenny Rogers and Dottie West - Every Time Two Fools Collide
TTITLE9=Crystal Gayle - I'll Get Over You
TTITLE10=Sawyer Brown - Step That Step
TTITLE11=Merle Haggard and the Strangers - Carolyn
TTITLE12=Dottie West - A Lesson in Leavin'
TTITLE13=Sonny James - It's the Little Things
TTITLE14=Mel McDaniel - Baby's Got Her Blue Jeans On
EXTD=
EXTT0=
EXTT1=
EXTT2=
EXTT3=
EXTT4=
EXTT5=
EXTT6=
EXTT7=
EXTT8=
EXTT9=
EXTT10=
EXTT11=
EXTT12=
EXTT13=
EXTT14=
PLAYORDER=
